<svg width="36" height="36" viewBox="0 0 36 36" fill="none" xmlns="http://www.w3.org/2000/svg">
<path d="M18 7.19999C18.89 7.19999 19.7601 7.46391 20.5001 7.95838C21.2401 8.45285 21.8169 9.15565 22.1575 9.97792C22.4981 10.8002 22.5872 11.705 22.4136 12.5779C22.2399 13.4508 21.8113 14.2526 21.182 14.882C20.5527 15.5113 19.7508 15.9399 18.8779 16.1135C18.005 16.2872 17.1002 16.198 16.2779 15.8575C15.4557 15.5169 14.7529 14.9401 14.2584 14.2001C13.7639 13.46 13.5 12.59 13.5 11.7C13.5 10.5065 13.9741 9.36193 14.818 8.51801C15.6619 7.6741 16.8065 7.19999 18 7.19999ZM18 5.39999C16.754 5.39999 15.536 5.76948 14.4999 6.46174C13.4639 7.15399 12.6564 8.13791 12.1796 9.28909C11.7027 10.4403 11.578 11.707 11.8211 12.9291C12.0642 14.1511 12.6642 15.2737 13.5452 16.1548C14.4263 17.0358 15.5489 17.6359 16.7709 17.8789C17.993 18.122 19.2597 17.9973 20.4109 17.5204C21.5621 17.0436 22.546 16.2361 23.2383 15.2001C23.9305 14.1641 24.3 12.946 24.3 11.7C24.3 10.0291 23.6363 8.4267 22.4548 7.24522C21.2733 6.06374 19.6709 5.39999 18 5.39999Z" fill="#C4C6D0"/>
<path d="M27 30.6H25.2V26.1C25.2 25.509 25.0836 24.9239 24.8575 24.3779C24.6313 23.8319 24.2998 23.3359 23.882 22.918C23.4641 22.5001 22.968 22.1687 22.4221 21.9425C21.8761 21.7164 21.2909 21.6 20.7 21.6H15.3C14.1065 21.6 12.9619 22.0741 12.118 22.918C11.2741 23.7619 10.8 24.9065 10.8 26.1V30.6H9V26.1C9 24.4291 9.66375 22.8267 10.8452 21.6452C12.0267 20.4637 13.6291 19.8 15.3 19.8H20.7C22.3709 19.8 23.9733 20.4637 25.1548 21.6452C26.3363 22.8267 27 24.4291 27 26.1V30.6Z" fill="#C4C6D0"/>
</svg>
