<svg width="24" height="24" viewBox="0 0 24 24" fill="none" xmlns="http://www.w3.org/2000/svg">
<path d="M12.0001 4.80001C12.5934 4.80001 13.1734 4.97595 13.6668 5.3056C14.1601 5.63524 14.5446 6.10378 14.7717 6.65196C14.9988 7.20013 15.0582 7.80333 14.9424 8.38528C14.8267 8.96722 14.5409 9.50177 14.1214 9.92133C13.7018 10.3409 13.1673 10.6266 12.5853 10.7424C12.0034 10.8581 11.4002 10.7987 10.852 10.5716C10.3038 10.3446 9.83529 9.96006 9.50564 9.46672C9.176 8.97337 9.00005 8.39335 9.00005 7.80001C9.00005 7.00436 9.31612 6.24129 9.87873 5.67869C10.4413 5.11608 11.2044 4.80001 12.0001 4.80001ZM12.0001 3.60001C11.1694 3.60001 10.3573 3.84633 9.66666 4.30783C8.97597 4.76934 8.43764 5.42529 8.11976 6.19274C7.80187 6.96019 7.71869 7.80467 7.88075 8.61939C8.04281 9.43411 8.44282 10.1825 9.0302 10.7699C9.61758 11.3572 10.366 11.7572 11.1807 11.9193C11.9954 12.0814 12.8399 11.9982 13.6073 11.6803C14.3748 11.3624 15.0307 10.8241 15.4922 10.1334C15.9537 9.44271 16.2001 8.63069 16.2001 7.80001C16.2001 6.6861 15.7576 5.61781 14.9699 4.83016C14.1822 4.0425 13.114 3.60001 12.0001 3.60001Z" fill="#44474F"/>
<path d="M18 20.4H16.8V17.4C16.8 17.006 16.7224 16.6159 16.5716 16.252C16.4209 15.888 16.1999 15.5573 15.9213 15.2787C15.6427 15.0001 15.312 14.7791 14.9481 14.6284C14.5841 14.4776 14.194 14.4 13.8 14.4H10.2C9.40435 14.4 8.64129 14.7161 8.07868 15.2787C7.51607 15.8413 7.2 16.6044 7.2 17.4V20.4H6V17.4C6 16.2861 6.4425 15.2178 7.23015 14.4302C8.0178 13.6425 9.08609 13.2 10.2 13.2H13.8C14.9139 13.2 15.9822 13.6425 16.7698 14.4302C17.5575 15.2178 18 16.2861 18 17.4V20.4Z" fill="#44474F"/>
</svg>
