<svg width="24" height="24" viewBox="0 0 24 24" fill="none" xmlns="http://www.w3.org/2000/svg">
<path d="M8.99981 4.80001C9.59315 4.80001 10.1732 4.97595 10.6665 5.3056C11.1599 5.63524 11.5444 6.10378 11.7714 6.65196C11.9985 7.20013 12.0579 7.80333 11.9422 8.38528C11.8264 8.96722 11.5407 9.50177 11.1211 9.92133C10.7016 10.3409 10.167 10.6266 9.58508 10.7424C9.00314 10.8581 8.39994 10.7987 7.85176 10.5716C7.30358 10.3446 6.83504 9.96006 6.5054 9.46672C6.17575 8.97337 5.99981 8.39335 5.99981 7.80001C5.99981 7.00436 6.31588 6.24129 6.87849 5.67869C7.4411 5.11608 8.20416 4.80001 8.99981 4.80001ZM8.99981 3.60001C8.16913 3.60001 7.3571 3.84633 6.66641 4.30783C5.97573 4.76934 5.4374 5.42529 5.11951 6.19274C4.80162 6.96019 4.71845 7.80467 4.88051 8.61939C5.04257 9.43411 5.44258 10.1825 6.02996 10.7699C6.61734 11.3572 7.36571 11.7572 8.18043 11.9193C8.99515 12.0814 9.83963 11.9982 10.6071 11.6803C11.3745 11.3624 12.0305 10.8241 12.492 10.1334C12.9535 9.44271 13.1998 8.63069 13.1998 7.80001C13.1998 6.6861 12.7573 5.61781 11.9697 4.83016C11.182 4.0425 10.1137 3.60001 8.99981 3.60001Z" fill="#44474F"/>
<path d="M15 20.4H13.8V17.4C13.8 16.6044 13.4839 15.8413 12.9213 15.2787C12.3587 14.7161 11.5956 14.4 10.8 14.4H7.2C6.40435 14.4 5.64129 14.7161 5.07868 15.2787C4.51607 15.8413 4.2 16.6044 4.2 17.4V20.4H3V17.4C3 16.2861 3.4425 15.2178 4.23015 14.4302C5.0178 13.6425 6.08609 13.2 7.2 13.2H10.8C11.9139 13.2 12.9822 13.6425 13.7698 14.4302C14.5575 15.2178 15 16.2861 15 17.4V20.4Z" fill="#44474F"/>
<path d="M24 10.5H21V7.5H19.5V10.5H16.5V12H19.5V15H21V12H24V10.5Z" fill="#44474F"/>
</svg>
